<?xml version="1.0" encoding="utf-8"?>
<!-- Generator: Adobe Illustrator 25.0.0, SVG Export Plug-In . SVG Version: 6.00 Build 0)  -->
<svg version="1.1" id="Layer_1" xmlns="http://www.w3.org/2000/svg" xmlns:xlink="http://www.w3.org/1999/xlink" x="0px" y="0px"
	 viewBox="0 0 1080 1080" style="enable-background:new 0 0 1080 1080;" xml:space="preserve">
<style type="text/css">
	.st0{fill:url(#SVGID_1_);}
	.st1{fill:url(#SVGID_2_);}
	.st2{fill:url(#SVGID_3_);}
	.st3{fill:url(#SVGID_4_);}
	.st4{fill:url(#SVGID_5_);}
	.st5{fill:url(#SVGID_6_);}
	.st6{fill:url(#SVGID_7_);}
	.st7{fill:url(#SVGID_8_);}
</style>
<linearGradient id="SVGID_1_" gradientUnits="userSpaceOnUse" x1="373.4543" y1="215.1574" x2="645.7499" y2="686.7871">
	<stop  offset="0" style="stop-color:#CD8AF7"/>
	<stop  offset="0.5124" style="stop-color:#7300B2"/>
	<stop  offset="1" style="stop-color:#54004D"/>
</linearGradient>
<path class="st0" d="M512.45,501.67c-16.19,32.54-103.49,173.98-25.67,276.89c-112.62-103.51-12.72-264.83,4.7-299.85
	c28.25-51.95,145.47-222.14,40.01-354.81C671.98,259.14,542.35,446.67,512.45,501.67z"/>
<linearGradient id="SVGID_2_" gradientUnits="userSpaceOnUse" x1="752.309" y1="756.2894" x2="407.5869" y2="955.3148">
	<stop  offset="0" style="stop-color:#CD8AF7"/>
	<stop  offset="0.5124" style="stop-color:#7300B2"/>
	<stop  offset="1" style="stop-color:#54004D"/>
</linearGradient>
<path class="st1" d="M763.17,775.1c-5.02,21.94-10.68,44.88-21.45,63.95c-39.75,70.55-115.37,118.21-202.12,118.21
	c-73.46,0-138.94-34.17-181.4-87.48c41.64,39.96,98.18,64.51,160.45,64.51c86.75,0,162.37-47.66,202.12-118.2
	c1.17-2.07,2.27-4.19,3.32-6.36C739.6,798.66,752.77,786.42,763.17,775.1z"/>
<linearGradient id="SVGID_3_" gradientUnits="userSpaceOnUse" x1="515.9263" y1="934.2841" x2="515.9263" y2="123.7464">
	<stop  offset="0" style="stop-color:#CD8AF7"/>
	<stop  offset="0.5124" style="stop-color:#7300B2"/>
	<stop  offset="1" style="stop-color:#54004D"/>
</linearGradient>
<path class="st2" d="M724.08,809.73c-1.04,2.17-2.15,4.29-3.32,6.36c-39.75,70.54-115.37,118.2-202.12,118.2
	c-62.27,0-118.81-24.55-160.45-64.51c-31.57-39.59-50.43-89.77-50.43-144.35c0-215.28,287.03-408.47,223.55-601.68l0.17,0.17
	c105.46,132.67-11.75,302.86-40.01,354.81c-17.42,35.01-117.32,196.34-4.7,299.85c11.74,15.53,27.24,30.18,47.31,43.45
	C610.59,865.44,677.77,842.79,724.08,809.73z"/>
<linearGradient id="SVGID_4_" gradientUnits="userSpaceOnUse" x1="564.218" y1="635.6876" x2="730.7699" y2="802.2396">
	<stop  offset="0" style="stop-color:#CD8AF7"/>
	<stop  offset="0.5124" style="stop-color:#7300B2"/>
	<stop  offset="1" style="stop-color:#54004D"/>
</linearGradient>
<path class="st3" d="M772.22,701.12c-0.02,1.09-0.22,4.73-0.28,5.53c-7.54,90.53-91.23,129.17-152.44,129.17
	c-74.13,0-135.99-49.35-150.12-114.92c0.02,0.02,0.05,0.03,0.06,0.05c43.08,33.23,95.81,44.14,137.14,25.23
	c7.79-3.56,28.56-13.06,41.9-34.55c20.76-33.45,19.31-89.28,18.71-98.36c-0.09-1.47-0.12-6.59,1.12-13.11
	c0.51-2.61,2.81-11.42,9.26-17.24c11.57-10.43,29.67-5.21,33.63-3.93c4.42,1.44,7.61,3.32,9.4,4.47
	c17.04,10.85,29.25,29.35,34.85,39.02c2.24,3.89,3.41,6.35,3.41,6.35C770.07,652.18,772.42,683.03,772.22,701.12z"/>
<linearGradient id="SVGID_5_" gradientUnits="userSpaceOnUse" x1="651.2246" y1="560.848" x2="651.2246" y2="467.9371">
	<stop  offset="0" style="stop-color:#CD8AF7"/>
	<stop  offset="0.5124" style="stop-color:#7300B2"/>
	<stop  offset="1" style="stop-color:#54004D"/>
</linearGradient>
<path class="st4" d="M681.37,550.56c-2.83,3.03-6.21,5.52-10.08,7.3c-19.56,9.03-44.39-3.12-55.46-27.13
	c-7.53-16.33-6.76-33.94,0.65-46.37c3.47-5.85,8.43-10.56,14.69-13.44c19.56-9.02,44.39,3.13,55.46,27.13
	C695.5,517.3,692.84,538.33,681.37,550.56z"/>
<linearGradient id="SVGID_6_" gradientUnits="userSpaceOnUse" x1="515.9263" y1="934.2841" x2="515.9263" y2="123.7464">
	<stop  offset="0" style="stop-color:#CD8AF7"/>
	<stop  offset="0.5124" style="stop-color:#7300B2"/>
	<stop  offset="1" style="stop-color:#54004D"/>
</linearGradient>
<path class="st5" d="M724.08,809.73c-1.04,2.17-2.15,4.29-3.32,6.36c-39.75,70.54-115.37,118.2-202.12,118.2
	c-62.27,0-118.81-24.55-160.45-64.51c-31.57-39.59-50.43-89.77-50.43-144.35c0-215.28,287.03-408.47,223.55-601.68l0.17,0.17
	c105.46,132.67-11.75,302.86-40.01,354.81c-17.42,35.01-117.32,196.34-4.7,299.85c11.74,15.53,27.24,30.18,47.31,43.45
	C610.59,865.44,677.77,842.79,724.08,809.73z"/>
<linearGradient id="SVGID_7_" gradientUnits="userSpaceOnUse" x1="510.4653" y1="774.8817" x2="767.2312" y2="626.6378">
	<stop  offset="0" style="stop-color:#CD8AF7"/>
	<stop  offset="0.5124" style="stop-color:#7300B2"/>
	<stop  offset="1" style="stop-color:#54004D"/>
</linearGradient>
<path class="st6" d="M645.43,787.88c-70.75,20.85-143.66-8.6-176-66.94c43.08,33.23,95.81,44.14,137.14,25.23
	c7.79-3.56,28.56-13.06,41.9-34.55c20.76-33.45,19.31-89.28,18.71-98.36c-0.09-1.47-0.12-6.59,1.12-13.11
	c0.51-2.61,2.81-11.42,9.26-17.24c11.57-10.43,29.67-5.21,33.63-3.93c4.42,1.44,7.61,3.32,9.4,4.47
	c17.04,10.85,29.25,29.35,34.85,39.02C772.68,710.58,703.82,770.67,645.43,787.88z"/>
<linearGradient id="SVGID_8_" gradientUnits="userSpaceOnUse" x1="625.7637" y1="477.3572" x2="672.0724" y2="557.5663">
	<stop  offset="0" style="stop-color:#CD8AF7"/>
	<stop  offset="0.5124" style="stop-color:#7300B2"/>
	<stop  offset="1" style="stop-color:#54004D"/>
</linearGradient>
<path class="st7" d="M681.37,550.56c-2.83,3.03-6.21,5.52-10.08,7.3c-19.56,9.03-44.39-3.12-55.46-27.13
	c-7.53-16.33-6.76-33.94,0.65-46.37c2.83-3.03,6.21-5.52,10.08-7.3c19.56-9.02,44.39,3.13,55.46,27.13
	C689.54,520.53,688.77,538.13,681.37,550.56z"/>
</svg>
